<svg width="18" height="18" viewBox="0 0 18 18" fill="none" xmlns="http://www.w3.org/2000/svg">
<path d="M7.875 14.925L7.875 3.075C7.875 1.95 7.395 1.5 6.2025 1.5L3.1725 1.5C1.98 1.5 1.5 1.95 1.5 3.075L1.5 14.925C1.5 16.05 1.98 16.5 3.1725 16.5L6.2025 16.5C7.395 16.5 7.875 16.05 7.875 14.925Z" stroke="#94A3B8" stroke-width="1.5" stroke-linecap="round" stroke-linejoin="round"/>
<path d="M16.5 9.675L16.5 3.075C16.5 1.95 16.02 1.5 14.8275 1.5L11.7975 1.5C10.605 1.5 10.125 1.95 10.125 3.075L10.125 9.675C10.125 10.8 10.605 11.25 11.7975 11.25L14.8275 11.25C16.02 11.25 16.5 10.8 16.5 9.675Z" stroke="#94A3B8" stroke-width="1.5" stroke-linecap="round" stroke-linejoin="round"/>
</svg>
