<svg width="19" height="19" viewBox="0 0 19 19" fill="none" xmlns="http://www.w3.org/2000/svg">
<path d="M10.5449 3.11332L11.8979 5.81932C12.0824 6.19601 12.5744 6.55732 12.9896 6.62651L15.4419 7.03394C17.0101 7.29532 17.3791 8.43307 16.2491 9.55544L14.3426 11.4619C14.0197 11.7848 13.8429 12.4075 13.9428 12.8534L14.4886 15.2134C14.9191 17.0815 13.9274 17.8041 12.2746 16.8278L9.97606 15.4671C9.56094 15.2211 8.87675 15.2211 8.45394 15.4671L6.15538 16.8278C4.51025 17.8041 3.51087 17.0738 3.94137 15.2134L4.48719 12.8534C4.58712 12.4075 4.41031 11.7848 4.08744 11.4619L2.18094 9.55544C1.05856 8.43307 1.41987 7.29532 2.98812 7.03394L5.44044 6.62651C5.84788 6.55732 6.33988 6.19601 6.52438 5.81932L7.87738 3.11332C8.61538 1.64501 9.81463 1.64501 10.5449 3.11332Z" stroke="#94A3B8" stroke-width="1.5375" stroke-linecap="round" stroke-linejoin="round"/>
</svg>
