<svg width="18" height="18" viewBox="0 0 18 18" fill="none" xmlns="http://www.w3.org/2000/svg">
<path d="M14.925 10.125L3.075 10.125C1.95 10.125 1.5 10.605 1.5 11.7975L1.5 14.8275C1.5 16.02 1.95 16.5 3.075 16.5L14.925 16.5C16.05 16.5 16.5 16.02 16.5 14.8275L16.5 11.7975C16.5 10.605 16.05 10.125 14.925 10.125Z" fill="#306BFF"/>
<path d="M9.675 1.5L3.075 1.5C1.95 1.5 1.5 1.98 1.5 3.1725L1.5 6.2025C1.5 7.395 1.95 7.875 3.075 7.875L9.675 7.875C10.8 7.875 11.25 7.395 11.25 6.2025L11.25 3.1725C11.25 1.98 10.8 1.5 9.675 1.5Z" fill="#306BFF"/>
</svg>
