<svg width="18" height="18" viewBox="0 0 18 18" fill="none" xmlns="http://www.w3.org/2000/svg">
<path d="M14.925 10.125H3.075C1.95 10.125 1.5 10.605 1.5 11.7975V14.8275C1.5 16.02 1.95 16.5 3.075 16.5H14.925C16.05 16.5 16.5 16.02 16.5 14.8275V11.7975C16.5 10.605 16.05 10.125 14.925 10.125Z" stroke="#94A3B8" stroke-width="1.5" stroke-linecap="round" stroke-linejoin="round"/>
<path d="M9.675 1.49998H3.075C1.95 1.49998 1.5 1.97998 1.5 3.17248V6.20249C1.5 7.39499 1.95 7.87498 3.075 7.87498H9.675C10.8 7.87498 11.25 7.39499 11.25 6.20249V3.17248C11.25 1.97998 10.8 1.49998 9.675 1.49998Z" stroke="#94A3B8" stroke-width="1.5" stroke-linecap="round" stroke-linejoin="round"/>
</svg>
