<svg width="28" height="28" viewBox="0 0 28 28" fill="none" xmlns="http://www.w3.org/2000/svg">
<path d="M14.0229 3.58435C10.2302 3.58435 7.14793 6.66664 7.14793 10.4594V13.7708C7.14793 14.4698 6.85001 15.5354 6.4948 16.1312L5.17709 18.3198C4.36355 19.6719 4.92501 21.1729 6.41459 21.6771C11.3531 23.3271 16.6813 23.3271 21.6198 21.6771C23.0063 21.2187 23.6136 19.5802 22.8573 18.3198L21.5396 16.1312C21.1958 15.5354 20.8979 14.4698 20.8979 13.7708V10.4594C20.8979 6.6781 17.8042 3.58435 14.0229 3.58435Z" stroke="#94A3B8" stroke-width="1.875" stroke-miterlimit="10" stroke-linecap="round"/>
<path d="M16.1427 3.91665C15.7875 3.81353 15.4208 3.73332 15.0427 3.68748C13.9427 3.54998 12.8886 3.63019 11.9031 3.91665C12.2354 3.06873 13.0604 2.4729 14.0229 2.4729C14.9854 2.4729 15.8104 3.06873 16.1427 3.91665Z" stroke="#94A3B8" stroke-width="1.875" stroke-miterlimit="10" stroke-linecap="round" stroke-linejoin="round"/>
<path d="M17.4604 22.0896C17.4604 23.9802 15.9135 25.5271 14.0229 25.5271C13.0833 25.5271 12.2125 25.1375 11.5937 24.5188C10.975 23.9 10.5854 23.0292 10.5854 22.0896" stroke="#94A3B8" stroke-width="1.875" stroke-miterlimit="10"/>
<circle cx="21.5" cy="6.5" r="4.375" fill="#EF5DA8" stroke="white" stroke-width="1.25"/>
</svg>
