<svg width="19" height="19" viewBox="0 0 19 19" fill="none" xmlns="http://www.w3.org/2000/svg">
<path d="M11.0298 2.97331L12.3828 5.67931C12.5673 6.056 13.0593 6.41731 13.4744 6.4865L15.9267 6.89393C17.495 7.15531 17.864 8.29306 16.7339 9.41543L14.8274 11.3219C14.5046 11.6448 14.3277 12.2675 14.4277 12.7134L14.9735 15.0734C15.404 16.9415 14.4123 17.6641 12.7595 16.6878L10.4609 15.3271C10.0458 15.0811 9.36161 15.0811 8.9388 15.3271L6.64024 16.6878C4.99511 17.6641 3.99574 16.9338 4.42624 15.0734L4.97205 12.7134C5.07199 12.2675 4.89518 11.6448 4.5723 11.3219L2.6658 9.41543C1.54343 8.29306 1.90474 7.15531 3.47299 6.89393L5.9253 6.4865C6.33274 6.41731 6.82474 6.056 7.00924 5.67931L8.36224 2.97331C9.10024 1.505 10.2995 1.505 11.0298 2.97331Z" stroke="#292D32" stroke-width="1.5375" stroke-linecap="round" stroke-linejoin="round"/>
</svg>
