<svg width="21" height="21" viewBox="0 0 21 21" fill="none" xmlns="http://www.w3.org/2000/svg">
<path d="M4.90666 11.0733C5.35585 11.0733 5.71999 10.7092 5.71999 10.26C5.71999 9.81078 5.35585 9.44664 4.90666 9.44664C4.45746 9.44664 4.09332 9.81078 4.09332 10.26C4.09332 10.7092 4.45746 11.0733 4.90666 11.0733Z" stroke="#1E293B" stroke-width="1.83" stroke-linecap="round" stroke-linejoin="round"/>
<path d="M10.6 11.0733C11.0492 11.0733 11.4133 10.7092 11.4133 10.26C11.4133 9.81077 11.0492 9.44663 10.6 9.44663C10.1508 9.44663 9.78668 9.81077 9.78668 10.26C9.78668 10.7092 10.1508 11.0733 10.6 11.0733Z" stroke="#1E293B" stroke-width="1.83" stroke-linecap="round" stroke-linejoin="round"/>
<path d="M16.2933 11.0733C16.7425 11.0733 17.1066 10.7092 17.1066 10.26C17.1066 9.81077 16.7425 9.44663 16.2933 9.44663C15.8441 9.44663 15.48 9.81077 15.48 10.26C15.48 10.7092 15.8441 11.0733 16.2933 11.0733Z" stroke="#1E293B" stroke-width="1.83" stroke-linecap="round" stroke-linejoin="round"/>
</svg>
